# xmcd CD database file
#
# Track frame offsets:
#	150
#	14185
#	25208
#	37485
#	49409
#	61885
#	79245
#	92652
#	107582
#	117683
#	127456
#	141596
#	155409
#	165006
#	179582
#	195109
#	209584
#	222457
#
# Disc length: 3214 seconds
#
# Revision: 0
# Processed by: cddbd v1.5.2PL0 Copyright (c) Steve Scherf et al.
# Submitted via: CDex 1.70beta2
#
DISCID=190c8c12
DTITLE=Charles Fox - The Best Of Charles Fox
DYEAR=1900
DGENRE=Salsa
TTITLE0=Macho
TTITLE1=Azure
TTITLE2=Mysterioso
TTITLE3=Midnite Patrol
TTITLE4=Yo Estoy Confundido
TTITLE5=Viene Acabando
TTITLE6=El Melao
TTITLE7=Tosca Pachanga
TTITLE8=Matilde Y Maceo
TTITLE9=Blue Pachanga
TTITLE10=Chiquita
TTITLE11=Contento Estoy
TTITLE12=Que Rica Pachanga
TTITLE13=Just For Fun
TTITLE14=No Me Dejes De Querer
TTITLE15=Like So
TTITLE16=España
TTITLE17=Ballade
EXTD=
EXTT0=
EXTT1=
EXTT2=
EXTT3=
EXTT4=
EXTT5=
EXTT6=
EXTT7=
EXTT8=
EXTT9=
EXTT10=
EXTT11=
EXTT12=
EXTT13=
EXTT14=
EXTT15=
EXTT16=
EXTT17=
PLAYORDER=
